<svg id="Capa_1" data-name="Capa 1" xmlns="http://www.w3.org/2000/svg" viewBox="0 0 2688.73 610.52"><defs><style>.cls-1{fill:#fff;}</style></defs><title>LOGOHISTORIASYOMAYOR</title><path class="cls-1" d="M907.17,84.84h71.5v9.21H965.59c-4.64,0-7.63.89-9.08,2.69s-2,6.07-2,12.87v56.25h76.56V109.61c0-7.11-.65-11.43-2.07-13.08-1.27-1.64-4.41-2.48-9.24-2.48h-12.32V84.84h71.14v9.21h-13c-3.22,0-5.54.49-6.88,1.32a9.79,9.79,0,0,0-3.14,4.72c-.58,1.45-.73,5.08-.73,11V242.24c0,6.31.47,10.19,1.48,11.45,1.86,2.87,5.52,4.17,10.77,4.17h11.49v9.28h-71.14v-9.28h12.32c4.79,0,8.06-1.3,9.76-4.27,1-1.53,1.55-5.69,1.55-12.26V177.9H954.5v64.34c0,6.41.46,10.28,1.35,11.6,1.85,2.72,5.1,4,9.74,4h13.08v9.28h-71.5v-9.28h13.69a8.54,8.54,0,0,0,8.95-6.16c.35-1.23.59-4.78.59-10.37V109.61q0-10.2-2.23-12.87c-1.38-1.8-4.35-2.69-9.07-2.69H907.17Z" transform="translate(-20.96 -29.71)"/><path class="cls-1" d="M1102.69,84.84h77.24v9.21h-13.21c-6,0-9.62.84-11.25,2.48s-2.28,4.9-2.28,10.14V244.78c0,5.38.69,8.91,2,10.31,1.86,1.88,5,2.77,9.86,2.77h14.83v9.28h-77.24v-9.28h14.62c5.1,0,8.46-.79,10-2.4s2.36-5.3,2.36-10.68V106.67c0-5.29-.82-8.54-2.13-9.77-2.08-1.9-6.06-2.85-11.7-2.85h-13.1Z" transform="translate(-20.96 -29.71)"/><path class="cls-1" d="M1300.43,98.62l10.15-15.9H1319l.67,66.45h-7.55c-4.62-20.35-11.59-35.31-20.7-44.62s-19.77-14-31.74-14c-10,0-18.14,3.28-24.4,9.77a34.56,34.56,0,0,0-6,39.14,27.65,27.65,0,0,0,10.93,10.72c4.75,2.76,13.8,5.78,27,8.78,18.73,4.49,31.81,8.87,39.3,13.43a44.82,44.82,0,0,1,16.88,17,51.42,51.42,0,0,1,5.52,24.14c0,16.44-5,30.08-15.21,40.85s-23.38,16.24-39.43,16.24c-17.32,0-32.25-6-45-18.24l-12.77,17h-8.17V198.72h8.17c3.16,19.45,10.23,34.88,21.24,46.13s23.48,16.88,37.3,16.88c11.14,0,20.3-3.61,27.36-10.8a36,36,0,0,0,10.61-26.18,30.09,30.09,0,0,0-4-15.42,31,31,0,0,0-12.56-11c-5.8-3-17.08-6.66-34-10.9-18.44-4.75-31.1-10.06-37.75-16-9.39-8.38-14.18-20.23-14.18-35.65,0-16,4.69-29.2,14.08-39.4S1246,81,1260.71,81a49.94,49.94,0,0,1,20,4.1c6.39,2.68,12.94,7.22,19.73,13.55" transform="translate(-20.96 -29.71)"/><path class="cls-1" d="M1354.13,84.84h136l3.27,68.9h-7.81q-7.74-60.83-40.35-60.77c-4.48,0-7.46.85-9,2.4-1.72,1.73-2.49,4.4-2.49,8.17v145.7c0,3,.77,5.15,2.35,6.59s4.22,2,7.87,2h16.83v9.28H1383v-9.28h19.14c2.64,0,4.67-.62,6-2a7.78,7.78,0,0,0,2-5.59V102.44c0-3.13-.91-5.48-2.64-7.07s-4.51-2.4-8.4-2.4q-16.35,0-27.36,16.9c-6,9.24-10.43,23.89-13,43.87h-8.31Z" transform="translate(-20.96 -29.71)"/><path class="cls-1" d="M1592.05,81a71.36,71.36,0,0,1,39.68,12.16c12.36,8.16,22,19.41,29,33.91,6.86,14.52,10.45,30.84,10.45,49.06s-3.59,34.49-10.56,49.15-16.64,26.05-28.94,34.17-25.25,12.34-39,12.34c-13.49,0-26-4.08-37.83-12.13s-21.25-19.39-28.46-34.36-10.63-31.44-10.63-49.56q0-26.93,10.4-48.57t28.34-33.78c12-8.29,24.46-12.39,37.48-12.39m1.77,9.53c-14.7,0-26.59,6.64-35.78,20s-13.71,35-13.71,65.06q0,48.94,14,67.64c9.4,12.5,20.92,18.8,34.81,18.8a40.66,40.66,0,0,0,25.51-8.51c7.28-5.73,13.15-14.65,17.44-27,4.39-12.22,6.52-28.45,6.52-48.54,0-21.82-2.06-39-6.13-51.25s-9.85-21.35-17.41-27.3a40.13,40.13,0,0,0-25.28-8.85" transform="translate(-20.96 -29.71)"/><path class="cls-1" d="M1694.21,84.84h86.51c16.8,0,29.79,4.18,39.06,12.41s13.82,19.2,13.82,32.69a41.28,41.28,0,0,1-5.53,21.52,39.78,39.78,0,0,1-15.72,15c-6.95,3.72-17.8,6.46-32.66,8.1q16.24,4.77,22.26,9.43a33.8,33.8,0,0,1,9.83,12c2.31,4.91,5.27,14.86,8.49,29.89q3.32,16.14,7.24,22.05c2,3,4,4.58,6.37,4.58s4.46-1.89,6.54-5.68,3.15-10.28,3.58-19.7h7.75Q1849.5,269,1823.32,269a23.11,23.11,0,0,1-14.34-4.56c-4-3-7.13-7.56-9.14-13.38-1.54-4.5-3.33-16.15-5.29-34.93-1.13-11-2.86-18.7-5.41-23.31a26.68,26.68,0,0,0-11.44-11.06c-5.19-2.8-11.49-4.2-18.72-4.2h-13.73v71.6c0,3,.75,5.23,2.25,6.47,1.72,1.51,4.54,2.25,8.48,2.25h16v9.28h-77.81v-9.28h16.5c3.55,0,6.23-.74,8-2.25a8.48,8.48,0,0,0,2.52-6.47V103.45c0-3.15-.82-5.45-2.58-7s-4.47-2.39-7.89-2.39h-16.5Zm51,83.83h19.81c13.31,0,23.71-2.78,31.23-8.19s11.26-15.16,11.26-29.07c0-9.61-1.43-17.22-4.15-22.82-2.89-5.57-6.71-9.44-11.25-11.45s-13.65-3.09-27.17-3.09c-8.91,0-14.41.69-16.53,2s-3.2,3.7-3.2,7Z" transform="translate(-20.96 -29.71)"/><path class="cls-1" d="M1869.08,84.84h77.22v9.21h-13.16c-5.93,0-9.65.84-11.29,2.48s-2.28,4.9-2.28,10.14V244.78c0,5.38.7,8.91,2,10.31,1.8,1.88,5.06,2.77,9.91,2.77h14.77v9.28h-77.22v-9.28h14.58c5.14,0,8.48-.79,9.93-2.4,1.61-1.67,2.28-5.3,2.28-10.68V106.67c0-5.29-.62-8.54-2-9.77-2.16-1.9-6.09-2.85-11.75-2.85h-13.08Z" transform="translate(-20.96 -29.71)"/><path class="cls-1" d="M2040.62,81h7.56l60.15,166.78c2.33,6.81,7.25,10.11,14.76,10.11h5.23v9.28h-66.86v-9.28h5.37c6.87,0,11.86-.79,14.7-2.4a5.67,5.67,0,0,0,2.85-5.3,12.24,12.24,0,0,0-.73-4.48L2069.79,207H2003.6l-7.81,22.27c-2,5.89-3.06,10.6-3.06,14a13.07,13.07,0,0,0,5.23,10.4c3.43,3,8.36,4.27,14.89,4.27h5.7v9.28h-60.67v-9.28c6.45,0,11.61-1.57,15.36-4.61s7.24-8.85,10.42-17.53Zm-3.34,35.12-30,81.23h59.14Z" transform="translate(-20.96 -29.71)"/><path class="cls-1" d="M2238.93,98.62l10.27-15.9h8.23l.71,66.45h-7.5c-4.72-20.35-11.58-35.31-20.79-44.62s-19.75-14-31.62-14c-10,0-18.18,3.28-24.52,9.77a32.85,32.85,0,0,0-9.49,23.82,30.81,30.81,0,0,0,3.64,15.32,27.12,27.12,0,0,0,10.78,10.72c4.74,2.76,13.77,5.78,27.08,8.78,18.62,4.49,31.82,8.87,39.25,13.43a44.46,44.46,0,0,1,16.88,17,51.06,51.06,0,0,1,5.54,24.14q0,24.66-15.27,40.85c-10.18,10.82-23.23,16.24-39.33,16.24-17.3,0-32.37-6-45.08-18.24l-12.82,17h-8.08V198.72h8.08c3.15,19.45,10.34,34.88,21.28,46.13,11.09,11.24,23.45,16.88,37.31,16.88q16.79,0,27.33-10.8a35.75,35.75,0,0,0,10.64-26.18,29.63,29.63,0,0,0-4-15.42,30.26,30.26,0,0,0-12.49-11c-5.83-3-17-6.66-33.88-10.9-18.51-4.75-31.14-10.06-37.9-16-9.43-8.38-14.13-20.23-14.13-35.65,0-16,4.69-29.2,14.13-39.4S2184.57,81,2199.23,81a50.36,50.36,0,0,1,20,4.1c6.3,2.68,12.91,7.22,19.68,13.55" transform="translate(-20.96 -29.71)"/><path class="cls-1" d="M2328.78,84.84H2463l3.21,62.11h-7.71c-3.07-19.51-7.86-33.25-14.43-41.12s-15.19-11.65-25.76-11.65h-33.12c-2.66,0-4.77.76-6.12,2.35s-2,4-2,7.26v65.64h14.45a23.28,23.28,0,0,0,18.94-9.06c4.79-6.06,7.39-15.42,7.79-27.93h7.85v85.37h-7.85c-.4-14.11-3.11-24.32-8.05-30.31-4.87-6.18-11.46-9.19-19.9-9.19h-13.23v73.24c0,2.66.73,4.71,2.52,6.14,1.49,1.46,4.26,2.15,8.1,2.15h26.13q42.76,0,49.17-59.41h8.25l-2.9,68.7H2328.78v-9.29h11.58c4.53,0,7.65-.83,9.46-2.55s2.8-4.14,2.8-7.52v-146c0-3.26-.78-5.61-2.39-7.26s-4.18-2.35-7.56-2.35h-13.89Z" transform="translate(-20.96 -29.71)"/><path class="cls-1" d="M2515.85,84.84h40.44L2658.4,229.59V124.83c0-10.58-2.18-18.29-6.65-23.45-4.09-4.59-10.05-7-18.09-7.2V84.84H2693v9.34c-6.12,0-10.7.87-13.68,2.78s-5.53,5.08-7.71,9.88a38.08,38.08,0,0,0-3.37,15.87V269.13h-10.79L2551.81,118.4V229.59c0,10.06,2.32,17.63,7,22.62s11.89,7.42,21.67,7.63v9.29h-64.6v-9.29c8.13-.39,14.5-3.27,19.22-8.76,4.77-5.29,7.14-12,7.14-19.91V106.36l-2-2.38c-3.8-4.54-6.46-7.19-8.07-8.06a18.3,18.3,0,0,0-8.55-1.74h-7.7Z" transform="translate(-20.96 -29.71)"/><path class="cls-1" d="M1450.7,336.68h78.1l70.14,201.68,64.52-201.68h79.91v12.9h-19.58c-6.87,0-11.44,1.14-13.85,3.28s-3.51,6-3.51,11.45V566.53c0,4.05,1.37,7.13,4.22,9.32s7.75,3.27,14.76,3.27h18V592H1635.93V579.12H1656c5.74,0,10-1.2,12.77-3.58a11.27,11.27,0,0,0,4.16-9V349.58L1595.38,592h-10.7l-83.56-241.38V536.33c0,11,1.29,19.26,3.77,24.81a29.37,29.37,0,0,0,10.92,12.6c4.69,2.87,12.52,4.72,23.34,5.38V592H1450.7V579.12c14.47-1.11,24.3-4.46,29.46-10.19s7.79-16,7.79-30.57V362.17c0-4.29-1.23-7.5-3.63-9.55s-7-3-13.63-3h-20Z" transform="translate(-20.96 -29.71)"/><path class="cls-1" d="M1859,331.31h10.68L1953.74,565c3.4,9.47,10.3,14.15,20.77,14.15h7.32V592h-93.62V579.12h7.42c9.81,0,16.64-1.14,20.66-3.48a8.06,8.06,0,0,0,4.1-7.38,20.75,20.75,0,0,0-1-6.24l-19.56-54.22H1807.1l-10.9,31.05q-4.32,12.45-4.31,19.74c0,5.55,2.39,10.5,7.24,14.44s11.79,6.09,21,6.09h7.94V592h-85V579.12c9.15,0,16.25-2.18,21.6-6.53s10.13-12.4,14.55-24.56Zm-4.62,49.22-42.18,113.78h82.89Z" transform="translate(-20.96 -29.71)"/><path class="cls-1" d="M1973.18,336.68H2076v12.9h-11.4c-9.46,0-15.66.85-18.47,2.44s-4.3,3.89-4.3,6.77a15.64,15.64,0,0,0,2.21,8.1l59.54,100.68,42.9-85.84a27.28,27.28,0,0,0,2.79-12.39c0-6-1.84-10.8-5.35-14.37s-8.74-5.39-15.44-5.39h-10.94v-12.9h89.52v12.9q-15.32,0-24.17,6c-5.92,3.83-11.59,11.18-17.12,22l-54.28,108v80.78c0,4.23,1.12,7.31,3.41,9.17,3,2.37,7.57,3.6,13.58,3.6h20.2V592H2041V579.12h21.21c5.74,0,9.86-1.14,12.43-3.4s3.77-5.37,3.77-9.37V487.79l-72.87-123.48c-3.07-5.33-6.84-9-11.06-11.17s-11.32-3.27-21.29-3.56Z" transform="translate(-20.96 -29.71)"/><path class="cls-1" d="M2310,331.31q29.75,0,55.65,17c17.28,11.4,30.8,27.17,40.6,47.5s14.67,43.23,14.67,68.7-4.87,48.38-14.79,68.83q-14.65,30.81-40.48,47.92c-17.21,11.48-35.35,17.24-54.69,17.24-18.76,0-36.5-5.64-53-16.93-16.38-11.16-29.7-27.26-39.65-48.15s-15-44-15-69.45q0-37.68,14.5-68t39.79-47.5c16.81-11.47,34.34-17.14,52.47-17.14m2.58,13.28q-31,0-50.14,28c-12.73,18.71-19.23,49.07-19.23,91.15q0,68.67,19.68,94.88t48.66,26.21c13.67,0,25.54-3.93,35.78-12,10.33-7.86,18.44-20.45,24.52-37.77s9.18-39.95,9.18-68c0-30.63-3-54.49-8.62-71.82S2358.53,365.34,2348,357a55.54,55.54,0,0,0-35.39-12.45" transform="translate(-20.96 -29.71)"/><path class="cls-1" d="M2451.84,336.68h121.29c23.46,0,41.72,5.8,54.63,17.44s19.45,26.85,19.45,45.73c0,11.38-2.57,21.35-7.71,30.15a55.88,55.88,0,0,1-22.25,21.06c-9.61,5.23-24.88,9-45.6,11.3,15.16,4.45,25.49,8.91,31.15,13.27a44.78,44.78,0,0,1,13.7,16.74c3.46,6.79,7.36,20.8,11.88,41.87,3.25,15.08,6.57,25.35,10.23,30.9,2.78,4.28,5.77,6.31,8.86,6.31,3.27,0,6.36-2.57,9.16-7.81s4.53-14.43,5.17-27.67h10.8q-3.07,58.66-39.88,58.68a32.37,32.37,0,0,1-20-6.37c-5.68-4.31-9.93-10.56-12.74-18.86-2.26-6.23-4.75-22.5-7.48-48.92-1.59-15.28-4.06-26.11-7.51-32.57s-8.83-11.58-16.12-15.56-16-5.89-26.21-5.89h-19.14V566.87c0,4.17,1,7.28,2.94,9,2.66,2.16,6.57,3.27,11.93,3.27h22.58V592H2451.84V579.12h23.07c5.12,0,8.8-1.11,11.22-3.27a11.91,11.91,0,0,0,3.53-9V362.74c0-4.38-1.25-7.7-3.67-9.88s-6.12-3.28-11.08-3.28h-23.07Zm71.64,117.37h27.74c18.65,0,33.18-3.85,43.73-11.41s15.68-21.28,15.68-40.8c0-13.43-1.9-24.08-5.89-31.9s-9.12-13.19-15.61-16.07-19.15-4.29-38.05-4.29c-12.47,0-20.29,1-23.16,2.94s-4.44,5.07-4.44,9.65Z" transform="translate(-20.96 -29.71)"/><path class="cls-1" d="M907.17,336.63h102.36v12.88H998.16c-9.57,0-15.65.88-18.55,2.4s-4.18,3.88-4.18,6.67a15.21,15.21,0,0,0,2.2,8.14l59.22,100.09,42.52-85.3a25.07,25.07,0,0,0,3-12.35c0-6.1-1.87-10.75-5.39-14.29s-8.66-5.36-15.41-5.36h-10.72V336.63h88.88v12.88q-15.15,0-24,5.85c-5.92,4-11.62,11.2-16.94,22L1044.9,484.67v80.51c0,4.16,1,7.25,3.23,9.06,3,2.37,7.55,3.54,13.46,3.54h20.09v13H974.51v-13h21.22c5.73,0,9.79-1.07,12.29-3.32s3.76-5.3,3.76-9.28V487L939.35,364.2c-3.16-5.33-6.83-9-11-11.2s-11.22-3.21-21.16-3.49Z" transform="translate(-20.96 -29.71)"/><path class="cls-1" d="M1246.26,331.31c19.57,0,38.14,5.67,55.32,16.89q25.88,17.13,40.3,47.23c9.84,20.32,14.65,43.08,14.65,68.35s-4.81,48.19-14.65,68.6-23.2,36.13-40.3,47.63c-17.13,11.34-35.25,17.13-54.41,17.13-18.65,0-36.28-5.72-52.63-16.82-16.54-11.16-29.73-27.09-39.61-47.94S1140,488.53,1140,463.29q0-37.37,14.43-67.64c9.74-20.08,22.87-35.92,39.62-47.2,16.68-11.47,34-17.14,52.2-17.14m2.45,13.23c-20.43,0-37.15,9.35-49.8,27.87s-19.05,48.69-19.05,90.74c0,45.4,6.41,76.84,19.5,94.28s29.23,26,48.45,26c13.39,0,25.28-3.88,35.51-11.79s18.35-20.39,24.52-37.7c5.89-17.12,9-39.67,9-67.74,0-30.35-2.88-54.11-8.48-71.31s-13.78-29.72-24.31-38a55.82,55.82,0,0,0-35.29-12.37" transform="translate(-20.96 -29.71)"/><path class="cls-1" d="M2709.69,37.75h-2v-8h2Zm-24.66,0H2672.6v-8H2685Zm-35.05,0h-12.5v-8H2650Zm-35.16,0h-12.37v-8h12.37Zm-35.06,0H2567.3v-8h12.46Zm-35.13,0h-12.39v-8h12.39Zm-35,0h-12.56v-8h12.56Zm-35.16,0H2462v-8h12.5Zm-35.16,0h-12.46v-8h12.46Zm-35.07,0h-12.45v-8h12.45Zm-35.11,0h-12.5v-8h12.5Zm-35.12,0h-12.51v-8H2334Zm-35.08,0H2286.5v-8H2299Zm-35.12,0h-12.49v-8h12.49Zm-35.13,0h-12.5v-8h12.5Zm-35.11,0h-12.46v-8h12.46Zm-35.09,0H2146v-8h12.46Zm-35,0H2111v-8h12.51Zm-35.14,0h-12.46v-8h12.46Zm-35.09,0h-12.51v-8h12.51Zm-35.09,0h-12.46v-8h12.46Zm-35.08,0h-12.49v-8h12.49Zm-35.15,0h-12.46v-8h12.46Zm-35.08,0h-12.48v-8h12.48Zm-35.13,0h-12.47v-8h12.47Zm-35.13,0H1830.1v-8h12.47Zm-35.11,0H1795v-8h12.43Zm-35.06,0h-12.51v-8h12.51Zm-35.11,0h-12.44v-8h12.44Zm-35.14,0h-12.5v-8h12.5Zm-35.1,0h-12.4v-8h12.4Zm-35.14,0h-12.4v-8h12.4Zm-35,0h-12.5v-8h12.5Zm-35.12,0h-12.46v-8h12.46Zm-35.14,0h-12.41v-8h12.41Zm-35.06,0h-12.52v-8h12.52Zm-35.1,0H1444v-8h12.52Zm-35.13,0h-12.49v-8h12.49Zm-35.06,0h-12.5v-8h12.5Zm-35.17,0h-12.44v-8h12.44Zm-35,0h-12.52v-8h12.52Zm-35.13,0h-12.51v-8h12.51Zm-35.14,0h-12.41v-8h12.41Zm-35.07,0h-12.42v-8h12.42Zm-35.1,0h-12.5v-8h12.5Zm-35.09,0H1128.1v-8h12.44Zm-35.17,0h-12.43v-8h12.43Zm-35.06,0h-12.47v-8h12.47Zm-35.12,0h-12.45v-8h12.45Zm-35.1,0H987.67v-8h12.42Zm-35.11,0H952.54v-8H965Zm-35.12,0H917.4v-8h12.46Zm-35.05,0H882.32v-8h12.49Z" transform="translate(-20.96 -29.71)"/><path class="cls-1" d="M2709.69,640.23h-2v-8h2Zm-24.66,0H2672.6v-8H2685Zm-35.05,0h-12.5v-8H2650Zm-35.16,0h-12.37v-8h12.37Zm-35.06,0H2567.3v-8h12.46Zm-35.13,0h-12.39v-8h12.39Zm-35,0h-12.56v-8h12.56Zm-35.16,0H2462v-8h12.5Zm-35.16,0h-12.46v-8h12.46Zm-35.07,0h-12.45v-8h12.45Zm-35.11,0h-12.5v-8h12.5Zm-35.12,0h-12.51v-8H2334Zm-35.08,0H2286.5v-8H2299Zm-35.12,0h-12.49v-8h12.49Zm-35.13,0h-12.5v-8h12.5Zm-35.11,0h-12.46v-8h12.46Zm-35.09,0H2146v-8h12.46Zm-35,0H2111v-8h12.51Zm-35.14,0h-12.46v-8h12.46Zm-35.09,0h-12.51v-8h12.51Zm-35.09,0h-12.46v-8h12.46Zm-35.08,0h-12.49v-8h12.49Zm-35.15,0h-12.46v-8h12.46Zm-35.08,0h-12.48v-8h12.48Zm-35.13,0h-12.47v-8h12.47Zm-35.13,0H1830.1v-8h12.47Zm-35.11,0H1795v-8h12.43Zm-35.06,0h-12.51v-8h12.51Zm-35.11,0h-12.44v-8h12.44Zm-35.14,0h-12.5v-8h12.5Zm-35.1,0h-12.4v-8h12.4Zm-35.14,0h-12.4v-8h12.4Zm-35,0h-12.5v-8h12.5Zm-35.12,0h-12.46v-8h12.46Zm-35.14,0h-12.41v-8h12.41Zm-35.06,0h-12.52v-8h12.52Zm-35.1,0H1444v-8h12.52Zm-35.13,0h-12.49v-8h12.49Zm-35.06,0h-12.5v-8h12.5Zm-35.17,0h-12.44v-8h12.44Zm-35,0h-12.52v-8h12.52Zm-35.13,0h-12.51v-8h12.51Zm-35.14,0h-12.41v-8h12.41Zm-35.07,0h-12.42v-8h12.42Zm-35.1,0h-12.5v-8h12.5Zm-35.09,0H1128.1v-8h12.44Zm-35.17,0h-12.43v-8h12.43Zm-35.06,0h-12.47v-8h12.47Zm-35.12,0h-12.45v-8h12.45Zm-35.1,0H987.67v-8h12.42Zm-35.11,0H952.54v-8H965Zm-35.12,0H917.4v-8h12.46Zm-35.05,0H882.32v-8h12.49Z" transform="translate(-20.96 -29.71)"/><path class="cls-1" d="M812.1,513.55c-12-14.66-28.74-21.86-43.74-32.75-9-6.51-16.93-16.42-26.84-21.36-7.82-3.87-17.84-6.16-26.12-9.1C704.31,446.52,697,447.09,688,438c-7.05-7.05-12.1-15.73-18.21-23.59-.91-.74-1.94-1.57-3.17-2.4-1.58-.09-3.24.93-5,3.11-.12.21-.23.41-.34.64a1.85,1.85,0,0,1-1.75.93c-.09.18-.12.41-.21.6v1.45c5.5,5.36,14.21,13.87,13.15,19.92-1.73,9.44-24.67,8-32.46,9.82-11.69,2.73-30.12,13.75-42.11,11.9-14.09-2.21-23.6-19.13-36.18-25.29C549.28,429,528.6,411,515.49,409c-33.7-5.15-.66,18.31,10.28,26.74,14.05,10.76,27.34,20.55,41.51,29.8-15.93-10.36-35.43-11.54-54.73-12.64-10.66-.57-23.38,1.62-33.66-.9-9.52-2.32-17.2-7-26.81-9.33-20.76-5.06-34.29-7.05-40.19-29.52a73.65,73.65,0,0,0-13.21-.14c2.07,0,2.07,2,4.16,2-18.74-2-37.46-4.1-53.32-11-3.57-.22-7.18-.36-10.76-.5-16.49-.88-35.65-5-33.86-25.44.29-3.16,4-23.58-2.93-20.86-7.69,3.09-.2,22.1.77,27.37.79,4.09,2.67,10.8.26,14.7s-10.81,7-14.17,3.05a28.74,28.74,0,0,1-3.52-6.64c-4.22,4.75-8.74,9.57-14.59,12.38a25.23,25.23,0,0,1-9,2.3c-3.85.29-7.58,1.1-11.43,1.1a91.57,91.57,0,0,1-11-.84,60,60,0,0,1-13-3c-1.47-.54-3.8-1.27-4.16-3.06-.39-2.47,2.63-2,4.16-1.77,3,.29,6,.41,8.92,1a35,35,0,0,0,9.73.61c1.19-.1,2.28-.2,3.46-.28.62-.06,1.3.08,1.9,0,1.92-.17,2.9-1.21,2.42-3.1-.59-2.11-1.33-4.14-1.78-6.34-1-5-1.92-10.05-2.54-15.15-1.18-9.83-1.69-20.13.65-29.88-10.66-4.23-23.93-2.91-36.63-2.89a148.55,148.55,0,0,1,47.92-11.88c6.7-.6,12.35.16,18.79.43S291.62,333,298,333.19c5.68.19,11.09,3.48,16.61,3.94,10.58.83,24.49-3.22,36.13-3.94a49.4,49.4,0,0,1,5,0c4.69-8.66,9.48-17.32,11.09-27.34,3.76,6.73,1.78,21.11-4.23,28.36a44.53,44.53,0,0,1,6.29,2.2c7.68,3.46,8.21,4.54,16.24,1.33,5-2,19.19-11.88,23.5-10.15-4.19,8.94-15.8,30.8-6,39.51,6.7-3.19,4.18-18.92,5.75-25.34,1.33-5.44,2.44-14.53,7-18.49s13-3.53,18.38-6.19c3.45-1.69,6.07-6,9.39-7.31,9.91-4,12.81,8.33,20.18,13.48,8.12,5.68,23.77,8.72,33.31,6.13-3.94-10.77-25.55-6-33.34-11.41-11.46-8-7.95-23.86-7.73-35.06,10,.63,9.34,18.39,14.42,24,5.95-3.9-3.26-20.64-4.8-25.17-3.67-10.63-4.59-21.67-8.74-32.28-.46-1.14-1.21-2.66-2-4.27,0,7.31-2.21,15.88-1.1,22.82-6-5.33-2.14-17.79-6.71-27,.14-2,3.76-2.47,5-3.93a.28.28,0,0,0,0-.13c.24-4.87,6.69-6.34,10.34-7.22,5.5-1.29,10.71-3.21,16.12-4.71a141.15,141.15,0,0,1,35.32-5c18.19-.48,38,3.42,55.81-.82-.23-1.14-5.81-3.88-4.11-5.82,1.36.59,9.26.9,8.21-3-.69-2.6-13.49-5.15-16-5.72a123.94,123.94,0,0,0-18.37-3c-3.14-.29-11.3,0-13.16-3.26,3.91-3.44,11.16-4.31,16-6.6,7.16-3.41,14.26-6.74,21.75-9.92s14.64-6.93,21.78-10.43c3.1-1.45,5.37-3.58,8.83-3.24a10.3,10.3,0,0,1,4.07,1.15,15.57,15.57,0,0,1,3.28,2.36c11.48,14,28.15,24.18,41.15,39.5,1.21,1.06,2.52,2.08,3.77,3.13,2.94,2.44,12.59,12.23,11.81,16.65-.79,4.78-10.21,7.08-14.24,7.67-6.09.91-24.17-2.66-21.36,7.45.56,2,33.61-4.06,36.92-4.16,3.12-.06,11,3.41,18,7.76a.7.7,0,0,1,.35,0l.62.21a1.59,1.59,0,0,1,1.25,0,23,23,0,0,1,2.21,1.57,9.62,9.62,0,0,1,1.44,1.1,5.87,5.87,0,0,0,1.2.74,1.21,1.21,0,0,1,.66,1.21,15.72,15.72,0,0,1,1.43,2.34.79.79,0,0,1-.9,1.09,8.7,8.7,0,0,0-1.46-.39c.34.35.65.68,1,1a1,1,0,0,1-.24,1.54c-.39.16-.79.3-1.2.45a2.68,2.68,0,0,1,.75.69c.69.73.06,2.11-1,1.71a52.17,52.17,0,0,0-8.53-1.88,1.1,1.1,0,0,1-1.24.59c-1.75-.3-3.46-.62-5.09-1.05-.82,0-1.55,0-2.32,0a13.62,13.62,0,0,1-1.53.49c-3.43-.15-6.86.34-9.59,2.51-15.34,3.19-33.48,3.92-41.26,3.83.08.67.08,4.94,0,5.54,15,2.59,28.08-4.12,41.32-7a7.8,7.8,0,0,0,3.52,2.19c.27,0,.54,0,.77,0a54.86,54.86,0,0,1,20.47.6c5-.19,10.08-.72,15,.17,5,1.93,9.29,4.53,12.29,8.05a35.79,35.79,0,0,0,8.92,7.24c1.54.92,2.88,2.06,4.41,3.05,2.41,1.51,5.88,3.34,6.66,6.39,1,3.81-4.37,4.75-7.18,5.09-4.19.43-8.35,1.6-12.52,1.6-3.49,0-6.85.18-10.3.18-5.18,0-10.19-.71-15.31-.71-3,0-7.95-.64-10.46,1.45-3.22,2.63,1.81,4.42,4,4.91,5.43,1.17,11.42.1,16.93-.37a86.92,86.92,0,0,0,12.23-2.3,71.48,71.48,0,0,1,16.84-2.24c12.09,0,23.92,5.71,34.95,9.91a234.58,234.58,0,0,0,22.4,7.68c5.47,1.56,10.12,4.7,15.58,6.08,2.93.83,7.8-1.1,4.64-4.24-3.36-3.46-9.43-4.38-13.75-6-5-1.86-10.16-3.61-15-5.92-5.07-2.43-9.25-5.45-14-8.49A154.86,154.86,0,0,0,742.5,292c-3.56-1.79-7.19-3.54-10.84-5.45-6.11-3.2-13.3-5.06-18-10.34-.95-1.07-1.92-2.13-2.88-3.09s-2-2-3-3c-17.92-12.82-30.37-29.22-46.24-44.39-1-1.26-2.12-2.51-3.21-3.78s-2-2.37-2.95-3.6-2.09-2.43-3.19-3.68-2.23-2.44-3.35-3.63c-1.28-1.06-2.61-2.11-3.9-3.16-13.31-12-29.92-22.26-40.93-37.14-.81-.79-1.63-1.67-2.44-2.51s-1.61-1.65-2.43-2.49c22.83-15,126.44-59.36,150.64-71.9,12.31-6.34,24.59-12.73,36.61-19.46C795.62,69.26,808,62.22,807.59,50c-.14-5.22-1.61-15.28-5.93-18.93s-14.88,1.08-20.3,2.54a394.71,394.71,0,0,0-48.63,17c-15.23,6.32-30.36,12.94-45.47,19.51q-34.65,15.08-69.09,30.41c-10.37,4.6-20.7,9.23-31.1,13.92-7.22,3.27-19.63,12.32-27.36,7.17-1.12-.77-1.69-2.67-3-3.56s-2.88-.76-4-1.42c-3.12-1.77-4.15-4.21-6.56-6.71-2.89-2.9-5.9-3.84-9.18-5.92-3.46-2.16-5.74-5.35-9.55-7a72.84,72.84,0,0,0-10.24-3.08c-8.15-2.13-13.86-.78-22.06.57-3.39.54-7.55.74-10.8,2.48-4.55,2.47-6,7.23-11.26,6s-8.77-4.63-14.42-4.9c-9.74-.51-18.59,4.54-26.22,10-1.6,1.11-3.14,2.26-4.72,3.46a121,121,0,0,0-23.47,10.69c-1.4.83-2.85,1.7-4.33,2.56-9.2,10.49-20.85,14.84-32.87,18.2-1.73.43-3.46.88-5.14,1.35a52.41,52.41,0,0,0-17.43,3.37c-1.26.5-2.58,1-3.84,1.63-16.85,7.76-31.38,20.06-47.79,25.95-1.76.69-3.49,1.32-5.22,1.93-8.64,3.11-17.32,5.57-25.26,9.32a41.22,41.22,0,0,0-4.66,2.43c-13.4,4.92-24.6,13.44-31.73,24.3-1,1.56-1.93,3.13-2.86,4.82-2.8,4.76-5.44,9.52-8.1,14.12-.91,1.63-1.85,3.19-2.75,4.85a57.63,57.63,0,0,1-3.82,10.15c-.79,1.54-1.6,3-2.51,4.44-13.18,12-23.56,24.26-35.11,37.49-1.13,1.39-2.21,2.83-3.29,4.2s-2.27,2.69-3.47,4c-.67,1-1.34,1.93-2,2.93-1.9,2.86-3.71,5.68-5.36,8.53-8.63,14.68-26.63,19.44-27.3,36,0,1.08,5,5.23,5.83,6.16,2.06,2.18,4.1,4.35,6.38,6.36a28.28,28.28,0,0,0,7.13,4.78c2.4,1.11,7.2.8,8.17,3.4.8,2.31-2.37,6.19-3.68,7.75-3.66,4.47-9.1,7.82-14.22,10.46-1.84-1.76-1-5.3-1.18-7.95-6.83,2.58-16.35,16.05-20.53,22.25-2.17,3.4,11.44,1.19,11.6,1.15,4.82-.91,9.84-.58,14.64-1.82,7.54-2,14.95-2.9,22.34-5.67,4.27-1.63,8.5-3.49,12.82-4.8,3-1,6.35-1.56,9.41-.68a18.91,18.91,0,0,1-.42-1.85,34.9,34.9,0,0,1-1-12.8c1.18-8.41,5.59-16.7,13.78-20.16A31.54,31.54,0,0,1,217,348.45c4.41.42,8.7,1.88,12.95,3.08a30.42,30.42,0,0,1,4.08,1.18c.92.34,1.62.24,2.09,1s.13,3,.17,4c.31,6.75.57,13.6,1.2,20.39.51,4.51,1.78,8.88,2.19,13.37.31,2.91,3.41,7.21-1.17,7.21-5.41.08-10.62-1.29-16-1.29-5.87,0-12.08-.15-17.72-2.31-3-1.09-5.72-2.89-8.59-4.18-1.25-.61-3.18-1.74-4.63-1.69-2.75.12.08,3.19.93,4.33a7.79,7.79,0,0,1,1.38,3.9,27.76,27.76,0,0,0,2.78,10.65c3.16,5.87,10.08,7,16.1,8.4,7.9,1.91,16.13,2,24.31,2.72,37.82,3.26,77.42,13.61,115.36,21.28,4.2.83,8.41,1.66,12.61,2.41,29.51.82,56.57,7.05,82.18,21.73,3.12,1.77,6.23,3.58,9.26,5.61,4.15,2.34,8.32,4.65,12.63,6.91,38.47,20.41,82.32,37.24,125.11,27.74,35.57-8,67.29-2.59,102.76.42,29.47,2.51,48.58,22.52,76.14,31.42,10,3.24,28.95,16.89,39.17,15.58,20.94-2.8,7-29.95-.16-38.72M690,260.57l-3.51-4.23a14.72,14.72,0,0,1,3.51,4.23M228.93,316.72c.94-4.9,2.79-9.41,8.37-12.3-.85,4.95-3.73,9-8.37,12.3m21.58-12.34c1.63-2.22,2.53-4.93,4.1-7.18s3-4.49,4.69-6.62A108.66,108.66,0,0,1,273,276.83c5-4.31,11.14-7.52,17.16-10.35,1.76-.88,3.5-1.75,5.23-2.7,6.2-3.36,12.24-7.16,18.35-10.7,7.53-4.39,15.27-7.61,23.3-11,7.17-3,14.27-5.65,21.53-8.36,7.71-2.93,13.89-6.23,22.13-7,3.56-.32,7.25-.18,10.69-.91,4.53-1,8.77-3,13.22-4.06.7-.15,1.75-.15,2.47-.24-11.51,4.32-21.73,9.79-32.35,15.82-16.27,9.23-34.49,15.27-50.85,24.58-13.12,7.39-25.52,16.31-37.93,24.84-4.73,3.22-9.25,6.64-14.07,9.69-3.45,2.23-6.67,5.41-10.54,6.81-3.36,1.27-7.33.29-10.85,1.11m44.83,24.43c-4.87,2.69-7.29.12-11.08.48-1.06-4.94,12.92-3.19,11.85-8.15,7.05-2.92.58,6-.77,7.67M311.5,332c1.08-7.91-5.18-.6-10.65-3.39,4.1-4,17.37-2.59,21.68,2.94-3.44-.37-5.86-2.94-11,.45m71.85-2.88c.23,1.5,1.17,1.29,2.23,1-.94,8-16.53-2.88-13.1,4.85-6.24-5.27,2.39-10.68,8.77-16.15,1,1.77.7,3-.38,3.81.6,1.57,2.48.53,3.85.37.69,3.91-7.77,3.7-10.8,5.9,3,5.18,8.82-.47,12.06-2.61.55,1.56-1.54,1.95-2.63,2.79m44.36-11c-6.63-4.74,4.83-12.91,10.4-16.8,4.09,3.72-7.93,11.65-10.4,16.8m17.16-67.19c-2.06-.38-3.09-3-6.14-1.37-2.45-4.63,4-5.29,6.33-7.9,1.77,4-.65,5.92-.19,9.27m97.37-82.58c-3.41,4-6.43,5.08-10.53,7.85a197.28,197.28,0,0,1-32.11,17.28C477.7,203,457.71,216.09,437.72,229c-.8,3-5.48,4.34-9.37,6-1.48.92-2.94,1.87-4.39,2.79a3.63,3.63,0,0,0-.61.89c-.19,0-.31-.22-.4-.23-5.53,3.42-11.11,6.81-16.79,10-26.38,15.08-53.85,28.3-79.79,44.1-9.86,6-20.24,11.24-30.45,16.63-5.25,2.77-10.52,5.57-15.66,8.54-4,2.28-8.58,6.63-13.62,5.21-7.32-1.95-3.7-7.84.55-10.65,6.34-4.2,14.09-5,21-8,9-3.89,17.44-9.49,26.15-14.11,19.56-10.32,38.68-23.07,57.85-34.09,8.29-4.77,17-9.35,25.58-13.76,10.55-5.41,20.36-13.2,31.3-18.36,18.41-8.65,35.7-17.75,52.59-29.1,10-6.76,19.61-13,30.31-18.07,7.19-3.41,13.3-8.84,20.46-12.3,5.52-2.71,18.09-6,9.81,3.78M173.07,385.45c-1-4.45,7.8-4.52,8-8.48,4.49.79-1.73,8-8,8.48m26-53.85c-8.39,12.06-20.9,22-35.49,25.58-13,3.15-24.22-1.86-24.45-16.2-1-1.75-3.45-.2-5.56.24.59-.14,2.39-4.93,2.8-5.68a58.07,58.07,0,0,1,3.89-5.84c2.19-2.77,6.08-8.48,9.51-9.73,5-1.82,3.76,3.06,2.21,5.61a24.6,24.6,0,0,1-8,8.36c-1.56,1-6.72,2.21-4.65,4.87s8.25-.32,10.22-1.9c3.43-2.73,5.15-7.27,6.56-11.27,1-2.86,1-5.83,2-8.77,1.72-5.45,5.24-10.23,9-14.57.76-.91,1.51-1.77,2.32-2.63,0,0,0-.05,0-.12a51.39,51.39,0,0,1,2.77-4.39v0c1.07-1.49,2.11-2.91,3.26-4.32s2.28-2.58,3.36-3.84c4.75-5.27,9.7-10.13,14.55-15-1.23,4.21-3.18,9.45-3.48,13.72,5.46-.75,6.25-7.89,7.23-12.06,1.57-6.94,3.11-8.39,7.91-13.83,1.31-1.46,2.62-3,3.88-4.52.92-1.45,1.85-3,2.75-4.56.72-1.65,1.48-3.36,2.22-5a64,64,0,0,1,5-9.5c1-1.58,2-3.06,3.06-4.57,4.06-5.9,8.2-11.63,12.39-17.41,1.09-1.6,2.18-3.18,3.36-4.68,5.81-7.52,12.93-13.59,23-15.56,1.9-.53,3.72-1.17,5.6-1.87a101.75,101.75,0,0,0,10.76-5c2.31-1.19,5.56-4.29,8-4.77-1.49,3.23-3.82,7-3.22,10.75,3.44-1.2,3.83-5.47,4.83-8.4,1.3-4.16,3.21-4.64,7-6.6,8.44-4.25,17-8.05,25.69-11.78,4.08-1.76,8.21-3.46,12.3-5.28.61-.29,9-4.4,8.94-3.84,0,3.39-3.93,5.56-3.6,9.41,2.81-1.21,4.87-5.34,6.78-7.75,2.62-3.47,4-5.29,8.12-6.63,3.89-1.29,9.13-1.16,12.7-2.7,1.65-.72,3.25-1.47,4.9-2.24a280.3,280.3,0,0,0,30-16.78c-3.9,5.09-6.79,12.18-4.23,17.36,4-2.35,6.48-10.87,9.95-15,7.41-8.76,12.85-11.21,23.7-15.07a38.94,38.94,0,0,0,3.78-3.27c1.25-1.1,2.47-2.26,3.64-3.33,4.12-3.84,8.8-7.43,14.26-9.22s8.17.32,12.81,2.86c1.19.64,2.35,1.34,3.51,2.1l.86.56c1,.63,1.91,1.25,2.78,1.93.18.14.36.25.54.37,1.06.77,2.12,1.6,3.12,2.4.29.25.55.47.83.69l2.41,2a6.09,6.09,0,0,1,.75.66c1,.86,2,1.74,3.12,2.64,3.33,2.88,6.67,5.79,10.23,8.46a80.07,80.07,0,0,0,11.75,7.71,38.53,38.53,0,0,0,5.25,2.21c5,1.72,8.07,2.83,12.62-.17,2.46-1.61,5.26-4.12,4.21-7.41-1-3-5.39-4.79-7.84-6.26A66.88,66.88,0,0,0,505,116.64c-4.64-1.62-9.17-2.94-13.65-5-2.79-1.27-10-3.43-11.33-6.43-1.42-3.37,6-5.44,8.89-6.47,11.65-4.29,23.15-4,33.77,2,5.41,3.07,9.63,7.34,15.11,10.5,2.85,1.58,4.58,4.49,6.7,6.67,3,3.13,8,3.21,10.51,5.92,5.11,5.55-21.6,22.38-26.12,25.53-19.05,13-39.76,23.45-60.39,33.78-10.67,5.32-21.24,10.64-31.81,16.25-5.24,2.8-10.43,5.63-15.61,8.62-1.89,1.1-3.87,3.73-5.67,4.5a5.53,5.53,0,0,1-.7.18,3.51,3.51,0,0,1-1.21,0,2.08,2.08,0,0,0-.29,0c-1.1-.15-2.27-.7-3.31-.92-.68-.15-1.33-.27-1.94-.37-3.82-.54-7.92-.33-11.51-1.22-3-.57-5.39-1.84-6.82-4.21-2.59-3.24-3.4-7.82-5.27-11.67a19.39,19.39,0,0,0-.92,7.08c1.53,2.5,2.54,4.95,2.12,6.92a3.14,3.14,0,0,1,.47,1.84c-.72,1.53-6.31,1.29-7.85,1.48-4.45.62-8.9,1.39-13.32,2.31-1.84.38-3.67.77-5.46,1.16a2.14,2.14,0,0,1-.27.09c-1.68.37-3.31.81-5,1.21l-.88.21-4.2,1.09a13.57,13.57,0,0,0-1.31.39c-1.65.41-3.34.84-5,1.35-5.18,1.44-11.25,5.69-16.77,5.54a20,20,0,0,1-5.28.2c-1.77-.2-3.26-1.16-4.9-1.35-.93,3,1.67,6.17,3.56,8.14a26,26,0,0,1-11.75,2.55c-3,0-6.62-.79-9.59-.09-4.8,1.2-9.32,4.71-13.28,7.44-8.58,6-14,13.11-25,7.88,2.1,4.08,6.49,3.26,10,4.32-4.77,5-10.52,9.29-14.75,14.77-4,5.17-6,11-10.71,15.62-4.57,4.49-9.3,8.8-14.1,13.09-2.07,1.89-4.35,4.24-7,5.34-2.36,1-5.06.42-7.43,1.19,2.55,1.27,5.8,3,8.73,2.35-3,7-12.57,11.26-18.06,16.31a51.3,51.3,0,0,0-7.25,8.91M691.24,468.43c.65-4.07,11.47-5.59,12.65-1.05-4.71,1.47-7.92-.37-12.65,1.05" transform="translate(-20.96 -29.71)"/><rect class="cls-1" x="197.36" y="572.68" width="336.49" height="35.67" rx="1.41"/><polygon class="cls-1" points="438.13 501.34 293.07 501.34 266.92 584.57 464.29 584.57 438.13 501.34"/><path class="cls-1" d="M716.66,240.31c2.57,2.25,5.19,4.38,7.92,6.33a29.88,29.88,0,0,1,3.13,2.59l.24.23c1.21,1.16,2.42,2.33,3.59,3.56.87.88,1.77,1.83,2.75,2.92.89.45,2.38,1.1,3.53,1.6,2.16.95,4.61,2,7.25,3.41,2.34,1.22,4.64,2.36,6.91,3.49l.18.09V124.89c-9.25,4.39-21.65,10-35.5,16.34Z" transform="translate(-20.96 -29.71)"/><path class="cls-1" d="M752.16,340.48q-3.09-1.16-6-2.3c-1.87-.71-3.91-1.53-6-2.36-6.91-2.75-14-5.6-18.52-5.6a32.51,32.51,0,0,0-5,.42v89.89c2.38.64,5.12,1.42,8.16,2.47l.26.09c2.24.79,4.93,1.62,7.77,2.49a152.06,152.06,0,0,1,19.31,7Z" transform="translate(-20.96 -29.71)"/><path class="cls-1" d="M455.52,502.65c-3.87-2-8-4.29-13.26-7.25-.65-.37-1.29-.76-1.92-1.18-2.29-1.54-4.92-3.06-7.42-4.48-20.13-11.54-41.93-17.22-68.72-18a29.29,29.29,0,0,1-4.28-.44c-4.39-.79-8.79-1.65-13.18-2.53-10.06-2-20.25-4.25-30.11-6.39-27.46-6-55.86-12.17-82.07-14.42-2.08-.19-4-.33-6-.46a131,131,0,0,1-22.62-3l-1.19-.27A70.43,70.43,0,0,1,191.12,440H59V71.81H439.75a57.35,57.35,0,0,1,20.41-2.69,44,44,0,0,1,11.1,2,52.65,52.65,0,0,1,17.84-5l1.45-.2,2.11-.36c8.23-1.39,18.48-3.12,31.84.36l.57.15A88.94,88.94,0,0,1,538.9,70.4c1,.45,2,.93,2.89,1.41h69.69c18.86-8.41,39.44-17.46,64.24-28.25L681,41.25l5.63-2.45H47.08A26.2,26.2,0,0,0,21,64.93V509.68a26.2,26.2,0,0,0,26.12,26.13H554.61C516.31,532.41,481.21,516.28,455.52,502.65Z" transform="translate(-20.96 -29.71)"/><path class="cls-1" d="M694.5,534.09c-6-.51-11.9-1.09-17.73-1.66-27.42-2.68-51.1-5-76.25.64a140.68,140.68,0,0,1-17.71,2.74h120.6A44.84,44.84,0,0,0,694.5,534.09Z" transform="translate(-20.96 -29.71)"/></svg>